<svg width="100" height="38" viewBox="0 0 100 38" fill="none" xmlns="http://www.w3.org/2000/svg">
<mask id="mask0_1_43" style="mask-type:alpha" maskUnits="userSpaceOnUse" x="0" y="9" width="19" height="19">
<path d="M0 9.32721H18.2362V27.9759H0V9.32721Z" fill="white"/>
</mask>
<g mask="url(#mask0_1_43)">
<path fill-rule="evenodd" clip-rule="evenodd" d="M13.5962 23.1937C12.3874 24.4899 10.8945 25.1389 9.11811 25.1389C7.34189 25.1389 5.84717 24.4899 4.64 23.1937C3.43717 21.9019 2.83717 20.3892 2.83717 18.6512C2.83717 16.9159 3.43717 15.4022 4.64 14.1115C5.84717 12.8147 7.34189 12.1653 9.11811 12.1653C10.8945 12.1653 12.3874 12.8147 13.5962 14.1115C14.7981 15.4022 15.3991 16.9159 15.3991 18.6512C15.3991 20.3892 14.7981 21.9019 13.5962 23.1937ZM15.3991 12.779C15.2404 12.5712 15.0715 12.366 14.8926 12.1653C13.2081 10.273 11.1349 9.32727 8.67151 9.32727C6.20925 9.32727 4.13623 10.273 2.45113 12.1653C0.81717 14.0011 0 16.1635 0 18.6512C0 21.1414 0.81717 23.3018 2.45113 25.1389C4.13623 27.0305 6.20925 27.976 8.67151 27.976C11.1349 27.976 13.2081 27.0305 14.8926 25.1389C15.0715 24.9376 15.2404 24.734 15.3991 24.5254V27.5707H18.2362V9.7333H15.3991V12.779Z" fill="white"/>
</g>
<path fill-rule="evenodd" clip-rule="evenodd" d="M67.9065 12.7352L67.7822 13.4812V9.70288H64.876V27.9765H67.7822V18.8385C67.7822 17.337 68.1277 15.9881 68.8194 14.7902C69.1798 14.1664 69.6288 13.6409 70.1692 13.2118C70.7092 12.7826 71.3584 12.5679 72.1154 12.5679C72.8747 12.5679 73.5881 12.8734 74.2581 13.4812V9.70288C73.6773 9.45315 73.0669 9.32819 72.4318 9.32819C70.3873 9.32819 68.8788 10.4642 67.9065 12.7352Z" fill="white"/>
<mask id="mask1_1_43" style="mask-type:alpha" maskUnits="userSpaceOnUse" x="81" y="9" width="19" height="19">
<path d="M81.7637 9.32721H99.9999V27.9759H81.7637V9.32721Z" fill="white"/>
</mask>
<g mask="url(#mask1_1_43)">
<path fill-rule="evenodd" clip-rule="evenodd" d="M95.3599 23.1937C94.1514 24.4899 92.6582 25.1389 90.8818 25.1389C89.1054 25.1389 87.6112 24.4899 86.4037 23.1937C85.2008 21.9019 84.6008 20.3892 84.6008 18.6512C84.6008 16.9159 85.2008 15.4022 86.4037 14.1115C87.6112 12.8147 89.1054 12.1653 90.8818 12.1653C92.6582 12.1653 94.1514 12.8147 95.3599 14.1115C96.5618 15.4022 97.1633 16.9159 97.1633 18.6512C97.1633 20.3892 96.5618 21.9019 95.3599 23.1937ZM97.1633 9.7333V12.779C97.0041 12.5712 96.835 12.366 96.6561 12.1653C94.9718 10.273 92.8984 9.32727 90.4356 9.32727C87.9729 9.32727 85.8999 10.273 84.2148 12.1653C82.5808 14.0011 81.7637 16.1635 81.7637 18.6512C81.7637 21.1414 82.5808 23.3018 84.2148 25.1389C85.8999 27.0305 87.9729 27.976 90.4356 27.976C92.8984 27.976 94.9718 27.0305 96.6561 25.1389C96.835 24.9376 97.0041 24.734 97.1633 24.5254V27.5707H99.9999V9.7333H97.1633Z" fill="white"/>
</g>
<path fill-rule="evenodd" clip-rule="evenodd" d="M41.5257 36.368C31.7449 36.368 23.8159 28.4356 23.8159 18.6503C23.8159 8.86496 31.7449 0.932364 41.5257 0.932364C51.3064 0.932364 59.2355 8.86496 59.2355 18.6503C59.2355 28.4356 51.3064 36.368 41.5257 36.368ZM41.5257 6.10352e-05C31.23 6.10352e-05 22.8838 8.34983 22.8838 18.6503C22.8838 28.9504 31.23 37.3003 41.5257 37.3003C51.8213 37.3003 60.1676 28.9504 60.1676 18.6503C60.1676 8.34983 51.8213 6.10352e-05 41.5257 6.10352e-05ZM35.5676 21.2554C34.8591 19.6154 34.8372 17.9586 35.4996 16.2849C36.1634 14.6121 37.3138 13.4206 38.9544 12.7112C40.5934 12.0026 42.2504 11.9805 43.923 12.6431C45.5966 13.3068 46.7862 14.459 47.4947 16.099C48.1934 17.7165 48.2113 19.3602 47.5478 21.0344C46.8838 22.7072 45.7321 23.8994 44.0932 24.608C42.4527 25.3174 40.7968 25.3389 39.1242 24.6762C37.4519 24.0119 36.2662 22.8731 35.5676 21.2554ZM32.8566 15.2371C31.9045 17.6408 31.9381 20.0222 32.9581 22.3838C33.9851 24.7611 35.6927 26.4107 38.0838 27.3385C40.4951 28.2723 42.8749 28.2327 45.2208 27.2184C47.5668 26.2042 49.2261 24.4976 50.1985 22.1009C51.161 19.7232 51.1317 17.348 50.1047 14.9707C49.0847 12.6091 47.3727 10.9533 44.9713 9.99924C42.5679 9.04712 40.1868 9.07978 37.8266 10.1C35.4653 11.1209 33.8098 12.8335 32.8566 15.2371Z" fill="white"/>
</svg>
