<svg width="32" height="30" viewBox="0 0 32 30" fill="none" xmlns="http://www.w3.org/2000/svg">
<g clip-path="url(#clip0_1_727)">
<path d="M28.7045 29.0673V7.53626C28.7045 5.51222 27.0561 3.87141 25.0227 3.87141H6.61358C4.58017 3.87141 2.93176 5.51222 2.93176 7.53626V29.0673" stroke="#40ABBD" stroke-linecap="round"/>
<path d="M0.54541 29.0508H31.0909" stroke="#40ABBD" stroke-linecap="round"/>
<path d="M20.5908 21.4491H14.3863V30.0004H20.5908V21.4491Z" fill="#6AD1E3" fill-opacity="0.45"/>
<path d="M12.3409 13.3729H9.74997C9.14747 13.3729 8.65906 13.8613 8.65906 14.4638V17.0327C8.65906 17.6352 9.14747 18.1237 9.74997 18.1237H12.3409C12.9434 18.1237 13.4318 17.6352 13.4318 17.0327V14.4638C13.4318 13.8613 12.9434 13.3729 12.3409 13.3729Z" fill="#6AD1E3" fill-opacity="0.45"/>
<path d="M23.7954 13.3729H21.2045C20.602 13.3729 20.1136 13.8613 20.1136 14.4638V17.0327C20.1136 17.6352 20.602 18.1237 21.2045 18.1237H23.7954C24.3979 18.1237 24.8863 17.6352 24.8863 17.0327V14.4638C24.8863 13.8613 24.3979 13.3729 23.7954 13.3729Z" fill="#6AD1E3" fill-opacity="0.45"/>
<path d="M19.1591 20.499H12.9545V29.0503H19.1591V20.499Z" stroke="#40ABBD" stroke-linecap="round"/>
<path d="M11.3863 12.4227H8.79544C8.19295 12.4227 7.70453 12.9111 7.70453 13.5136V16.0826C7.70453 16.685 8.19295 17.1735 8.79544 17.1735H11.3863C11.9888 17.1735 12.4773 16.685 12.4773 16.0826V13.5136C12.4773 12.9111 11.9888 12.4227 11.3863 12.4227Z" stroke="#40ABBD" stroke-linecap="round"/>
<path d="M22.8409 12.4227H20.25C19.6475 12.4227 19.1591 12.9111 19.1591 13.5136V16.0826C19.1591 16.685 19.6475 17.1735 20.25 17.1735H22.8409C23.4434 17.1735 23.9318 16.685 23.9318 16.0826V13.5136C23.9318 12.9111 23.4434 12.4227 22.8409 12.4227Z" stroke="#40ABBD" stroke-linecap="round"/>
<path d="M21.5454 0.545898H10.0909V10.0474H21.5454V0.545898Z" fill="white" stroke="#40ABBD" stroke-linecap="round"/>
<path fill-rule="evenodd" clip-rule="evenodd" d="M16.0568 7.19695V3.39636V7.19695Z" fill="white"/>
<path d="M16.0568 7.19695V3.39636" stroke="#40ABBD" stroke-linecap="round"/>
<path fill-rule="evenodd" clip-rule="evenodd" d="M14.1477 5.29663L17.9659 5.29663L14.1477 5.29663Z" fill="white"/>
<path d="M14.1477 5.29663L17.9659 5.29663" stroke="#40ABBD" stroke-linecap="round"/>
</g>
<defs>
<clipPath id="clip0_1_727">
<rect width="31.6364" height="30" fill="white"/>
</clipPath>
</defs>
</svg>
