<svg width="403" height="345" viewBox="0 0 403 345" fill="none" xmlns="http://www.w3.org/2000/svg">
<circle cx="202.5" cy="206.5" r="101" stroke="#40ABBD" stroke-width="3"/>
<circle cx="201" cy="82" r="74.5" fill="#E0F3F7" stroke="white" stroke-width="15"/>
<circle cx="82" cy="263" r="74.5" fill="#E0F3F7" stroke="white" stroke-width="15"/>
<circle cx="321" cy="260" r="74.5" fill="#E0F3F7" stroke="white" stroke-width="15"/>
<path d="M176.856 217.335C175.201 217.335 173.58 217.101 171.992 216.631C170.426 216.139 169.107 215.468 168.034 214.618L169.912 211.23C170.762 211.923 171.791 212.483 172.998 212.907C174.206 213.332 175.469 213.545 176.789 213.545C178.354 213.545 179.573 213.232 180.445 212.606C181.318 211.957 181.754 211.085 181.754 209.989C181.754 208.916 181.351 208.066 180.546 207.44C179.741 206.813 178.444 206.5 176.655 206.5H174.508V203.515L181.217 195.531L181.787 197.175H169.174V193.518H185.175V196.437L178.466 204.42L176.185 203.079H177.493C180.378 203.079 182.536 203.727 183.968 205.024C185.421 206.299 186.148 207.943 186.148 209.955C186.148 211.275 185.813 212.494 185.142 213.612C184.471 214.73 183.442 215.636 182.056 216.329C180.691 217 178.958 217.335 176.856 217.335ZM199.165 217.335C197.04 217.335 195.218 216.888 193.697 215.994C192.176 215.077 191.013 213.757 190.208 212.035C189.403 210.313 189.001 208.189 189.001 205.662C189.001 202.978 189.481 200.708 190.443 198.852C191.427 196.996 192.78 195.587 194.502 194.625C196.246 193.664 198.248 193.183 200.507 193.183C201.692 193.183 202.821 193.306 203.895 193.552C204.991 193.798 205.919 194.178 206.679 194.692L205.069 197.98C204.42 197.555 203.716 197.264 202.955 197.108C202.217 196.929 201.435 196.839 200.607 196.839C198.393 196.839 196.638 197.521 195.341 198.885C194.044 200.25 193.395 202.262 193.395 204.924C193.395 205.349 193.406 205.852 193.429 206.433C193.451 206.992 193.529 207.563 193.663 208.144L192.322 206.668C192.724 205.751 193.272 204.991 193.965 204.387C194.681 203.761 195.52 203.291 196.481 202.978C197.465 202.665 198.527 202.508 199.668 202.508C201.211 202.508 202.586 202.81 203.794 203.414C205.002 203.996 205.963 204.834 206.679 205.93C207.395 207.003 207.752 208.267 207.752 209.721C207.752 211.264 207.372 212.606 206.612 213.746C205.852 214.887 204.823 215.77 203.526 216.396C202.229 217.022 200.775 217.335 199.165 217.335ZM198.93 213.914C199.825 213.914 200.618 213.757 201.312 213.444C202.005 213.109 202.542 212.639 202.922 212.035C203.324 211.431 203.526 210.727 203.526 209.922C203.526 208.692 203.101 207.719 202.251 207.003C201.401 206.288 200.261 205.93 198.829 205.93C197.89 205.93 197.063 206.109 196.347 206.467C195.654 206.802 195.095 207.272 194.67 207.876C194.267 208.479 194.066 209.173 194.066 209.955C194.066 210.671 194.256 211.331 194.636 211.935C195.016 212.538 195.564 213.019 196.28 213.377C197.018 213.735 197.901 213.914 198.93 213.914Z" fill="#40ABBD"/>
<circle cx="224.5" cy="206.5" r="12" stroke="#40ABBD"/>
<circle cx="224" cy="207" r="5" stroke="#40ABBD" stroke-width="2"/>
<path d="M170.444 67.7212H172.353V78H170.444V67.7212ZM165.128 78H163.219V67.7212H165.128V78ZM170.591 73.5948H164.967V71.9649H170.591V73.5948ZM173.929 78L178.555 67.7212H180.434L185.075 78H183.078L179.098 68.7344H179.862L175.897 78H173.929ZM176.059 75.6212L176.573 74.1234H182.123L182.637 75.6212H176.059ZM186.281 76.3848C186.82 76.5708 187.295 76.6197 187.706 76.5316C188.117 76.4435 188.484 76.1449 188.807 75.6359L189.306 74.8576L189.497 74.652L193.08 67.7212H194.96L190.496 76.0177C190.134 76.7127 189.703 77.2413 189.204 77.6035C188.704 77.9657 188.166 78.1664 187.588 78.2056C187.021 78.2545 186.428 78.1468 185.812 77.8825L186.281 76.3848ZM189.453 76.2967L184.872 67.7212H186.913L190.496 74.8282L189.453 76.2967ZM202.919 74.0059C202.381 74.2311 201.857 74.3975 201.348 74.5052C200.839 74.6129 200.345 74.6667 199.865 74.6667C198.553 74.6667 197.54 74.3535 196.825 73.7269C196.121 73.0906 195.768 72.1802 195.768 70.9957V67.7212H197.662V70.7901C197.662 71.5145 197.873 72.0676 198.294 72.4494C198.715 72.8312 199.317 73.0221 200.1 73.0221C200.57 73.0221 201.04 72.9683 201.51 72.8606C201.989 72.7529 202.449 72.5865 202.89 72.3613L202.919 74.0059ZM202.626 78V67.7212H204.52V78H202.626ZM214.625 67.7212H216.534V78H214.625V67.7212ZM209.31 78H207.401V67.7212H209.31V78ZM214.772 73.5948H209.148V71.9649H214.772V73.5948ZM224.19 78.1468C223.387 78.1468 222.648 78.0147 221.972 77.7504C221.297 77.4861 220.71 77.119 220.21 76.6491C219.711 76.1694 219.324 75.6114 219.05 74.9751C218.776 74.329 218.639 73.6242 218.639 72.8606C218.639 72.097 218.776 71.3971 219.05 70.7608C219.324 70.1147 219.711 69.5567 220.21 69.0868C220.71 68.6071 221.297 68.2351 221.972 67.9708C222.648 67.7065 223.382 67.5743 224.175 67.5743C224.978 67.5743 225.712 67.7065 226.378 67.9708C227.053 68.2351 227.641 68.6071 228.14 69.0868C228.639 69.5567 229.026 70.1147 229.3 70.7608C229.574 71.3971 229.711 72.097 229.711 72.8606C229.711 73.6242 229.574 74.329 229.3 74.9751C229.026 75.6212 228.639 76.1792 228.14 76.6491C227.641 77.119 227.053 77.4861 226.378 77.7504C225.712 78.0147 224.983 78.1468 224.19 78.1468ZM224.175 76.4729C224.694 76.4729 225.174 76.3848 225.614 76.2085C226.055 76.0323 226.436 75.7827 226.759 75.4597C227.083 75.1268 227.332 74.745 227.508 74.3143C227.694 73.8738 227.787 73.3892 227.787 72.8606C227.787 72.332 227.694 71.8523 227.508 71.4215C227.332 70.981 227.083 70.5992 226.759 70.2762C226.436 69.9434 226.055 69.6888 225.614 69.5126C225.174 69.3364 224.694 69.2483 224.175 69.2483C223.656 69.2483 223.177 69.3364 222.736 69.5126C222.305 69.6888 221.924 69.9434 221.591 70.2762C221.268 70.5992 221.013 70.981 220.827 71.4215C220.651 71.8523 220.563 72.332 220.563 72.8606C220.563 73.3794 220.651 73.8591 220.827 74.2996C221.013 74.7401 221.268 75.1268 221.591 75.4597C221.914 75.7827 222.296 76.0323 222.736 76.2085C223.177 76.3848 223.656 76.4729 224.175 76.4729ZM233.584 71.9942H238.694V73.5654H233.584V71.9942ZM233.73 76.3994H239.531V78H231.821V67.7212H239.325V69.3217H233.73V76.3994ZM149.535 96.1468C148.752 96.1468 148.023 96.0196 147.347 95.7651C146.682 95.5007 146.099 95.1336 145.6 94.6638C145.11 94.1841 144.729 93.6212 144.455 92.9751C144.18 92.329 144.043 91.6242 144.043 90.8606C144.043 90.097 144.18 89.3922 144.455 88.7461C144.729 88.1 145.115 87.542 145.615 87.0721C146.114 86.5924 146.696 86.2253 147.362 85.9708C148.028 85.7065 148.757 85.5743 149.55 85.5743C150.392 85.5743 151.16 85.7212 151.855 86.0148C152.55 86.2987 153.138 86.7246 153.617 87.2924L152.384 88.4524C152.012 88.051 151.596 87.7525 151.136 87.5567C150.676 87.3511 150.176 87.2483 149.638 87.2483C149.1 87.2483 148.605 87.3364 148.155 87.5126C147.714 87.6888 147.328 87.9385 146.995 88.2615C146.672 88.5846 146.417 88.9663 146.231 89.4069C146.055 89.8474 145.967 90.332 145.967 90.8606C145.967 91.3892 146.055 91.8738 146.231 92.3143C146.417 92.7548 146.672 93.1366 146.995 93.4597C147.328 93.7827 147.714 94.0323 148.155 94.2085C148.605 94.3848 149.1 94.4729 149.638 94.4729C150.176 94.4729 150.676 94.375 151.136 94.1792C151.596 93.9736 152.012 93.6652 152.384 93.2541L153.617 94.4288C153.138 94.9868 152.55 95.4126 151.855 95.7063C151.16 96 150.387 96.1468 149.535 96.1468ZM159.947 96.1468C159.144 96.1468 158.405 96.0147 157.73 95.7504C157.054 95.4861 156.467 95.119 155.968 94.6491C155.468 94.1694 155.082 93.6114 154.808 92.9751C154.534 92.329 154.397 91.6242 154.397 90.8606C154.397 90.097 154.534 89.3971 154.808 88.7608C155.082 88.1147 155.468 87.5567 155.968 87.0868C156.467 86.6071 157.054 86.2351 157.73 85.9708C158.405 85.7065 159.139 85.5743 159.932 85.5743C160.735 85.5743 161.469 85.7065 162.135 85.9708C162.81 86.2351 163.398 86.6071 163.897 87.0868C164.396 87.5567 164.783 88.1147 165.057 88.7608C165.331 89.3971 165.468 90.097 165.468 90.8606C165.468 91.6242 165.331 92.329 165.057 92.9751C164.783 93.6212 164.396 94.1792 163.897 94.6491C163.398 95.119 162.81 95.4861 162.135 95.7504C161.469 96.0147 160.74 96.1468 159.947 96.1468ZM159.932 94.4729C160.451 94.4729 160.931 94.3848 161.371 94.2085C161.812 94.0323 162.194 93.7827 162.517 93.4597C162.84 93.1268 163.089 92.745 163.266 92.3143C163.452 91.8738 163.545 91.3892 163.545 90.8606C163.545 90.332 163.452 89.8523 163.266 89.4215C163.089 88.981 162.84 88.5992 162.517 88.2762C162.194 87.9434 161.812 87.6888 161.371 87.5126C160.931 87.3364 160.451 87.2483 159.932 87.2483C159.414 87.2483 158.934 87.3364 158.493 87.5126C158.063 87.6888 157.681 87.9434 157.348 88.2762C157.025 88.5992 156.77 88.981 156.584 89.4215C156.408 89.8523 156.32 90.332 156.32 90.8606C156.32 91.3794 156.408 91.8591 156.584 92.2996C156.77 92.7401 157.025 93.1268 157.348 93.4597C157.671 93.7827 158.053 94.0323 158.493 94.2085C158.934 94.3848 159.414 94.4729 159.932 94.4729ZM172.351 96.1468C171.548 96.1468 170.809 96.0147 170.134 95.7504C169.458 95.4861 168.871 95.119 168.372 94.6491C167.872 94.1694 167.486 93.6114 167.212 92.9751C166.938 92.329 166.801 91.6242 166.801 90.8606C166.801 90.097 166.938 89.3971 167.212 88.7608C167.486 88.1147 167.872 87.5567 168.372 87.0868C168.871 86.6071 169.458 86.2351 170.134 85.9708C170.809 85.7065 171.543 85.5743 172.336 85.5743C173.139 85.5743 173.873 85.7065 174.539 85.9708C175.214 86.2351 175.802 86.6071 176.301 87.0868C176.8 87.5567 177.187 88.1147 177.461 88.7608C177.735 89.3971 177.872 90.097 177.872 90.8606C177.872 91.6242 177.735 92.329 177.461 92.9751C177.187 93.6212 176.8 94.1792 176.301 94.6491C175.802 95.119 175.214 95.4861 174.539 95.7504C173.873 96.0147 173.144 96.1468 172.351 96.1468ZM172.336 94.4729C172.855 94.4729 173.335 94.3848 173.775 94.2085C174.216 94.0323 174.598 93.7827 174.921 93.4597C175.244 93.1268 175.493 92.745 175.67 92.3143C175.856 91.8738 175.949 91.3892 175.949 90.8606C175.949 90.332 175.856 89.8523 175.67 89.4215C175.493 88.981 175.244 88.5992 174.921 88.2762C174.598 87.9434 174.216 87.6888 173.775 87.5126C173.335 87.3364 172.855 87.2483 172.336 87.2483C171.818 87.2483 171.338 87.3364 170.897 87.5126C170.467 87.6888 170.085 87.9434 169.752 88.2762C169.429 88.5992 169.174 88.981 168.988 89.4215C168.812 89.8523 168.724 90.332 168.724 90.8606C168.724 91.3794 168.812 91.8591 168.988 92.2996C169.174 92.7401 169.429 93.1268 169.752 93.4597C170.075 93.7827 170.457 94.0323 170.897 94.2085C171.338 94.3848 171.818 94.4729 172.336 94.4729ZM179.997 96V85.7212H188V87.2924H181.877V89.818H184.917C186.15 89.818 187.085 90.0774 187.721 90.5963C188.367 91.1053 188.69 91.8493 188.69 92.8282C188.69 93.8366 188.333 94.6197 187.618 95.1777C186.914 95.7259 185.915 96 184.623 96H179.997ZM181.877 94.5316H184.52C185.254 94.5316 185.812 94.3896 186.194 94.1058C186.576 93.8219 186.767 93.4107 186.767 92.8723C186.767 91.815 186.018 91.2864 184.52 91.2864H181.877V94.5316ZM196.889 94.3848L196.463 94.8546V85.7212H198.343V94.8546L197.888 94.3848H202.572L202.117 94.8546V85.7212H203.996V96H190.795V85.7212H192.675V94.8546L192.234 94.3848H196.889ZM203.717 98.1879V95.5301L204.173 96H202.073V94.3848H205.479V98.1879H203.717ZM209.062 89.9942H214.172V91.5654H209.062V89.9942ZM209.209 94.3994H215.009V96H207.3V85.7212H214.804V87.3217H209.209V94.3994ZM221.866 96.1468C221.083 96.1468 220.353 96.0196 219.678 95.7651C219.012 95.5007 218.43 95.1336 217.93 94.6638C217.441 94.1841 217.059 93.6212 216.785 92.9751C216.511 92.329 216.374 91.6242 216.374 90.8606C216.374 90.097 216.511 89.3922 216.785 88.7461C217.059 88.1 217.446 87.542 217.945 87.0721C218.444 86.5924 219.027 86.2253 219.692 85.9708C220.358 85.7065 221.087 85.5743 221.88 85.5743C222.722 85.5743 223.491 85.7212 224.186 86.0148C224.881 86.2987 225.468 86.7246 225.948 87.2924L224.714 88.4524C224.342 88.051 223.926 87.7525 223.466 87.5567C223.006 87.3511 222.507 87.2483 221.968 87.2483C221.43 87.2483 220.936 87.3364 220.485 87.5126C220.045 87.6888 219.658 87.9385 219.325 88.2615C219.002 88.5846 218.748 88.9663 218.562 89.4069C218.386 89.8474 218.297 90.332 218.297 90.8606C218.297 91.3892 218.386 91.8738 218.562 92.3143C218.748 92.7548 219.002 93.1366 219.325 93.4597C219.658 93.7827 220.045 94.0323 220.485 94.2085C220.936 94.3848 221.43 94.4729 221.968 94.4729C222.507 94.4729 223.006 94.375 223.466 94.1792C223.926 93.9736 224.342 93.6652 224.714 93.2541L225.948 94.4288C225.468 94.9868 224.881 95.4126 224.186 95.7063C223.491 96 222.717 96.1468 221.866 96.1468ZM229.764 96V86.8665L230.219 87.3364H226.372V85.7212H235.065V87.3364H231.218L231.658 86.8665V96H229.764ZM236.726 96V85.7212H241.322C242.477 85.7212 243.378 85.9512 244.024 86.4113C244.67 86.8616 244.993 87.5126 244.993 88.3643C244.993 89.2062 244.685 89.8572 244.068 90.3173C243.451 90.7676 242.639 90.9927 241.631 90.9927L241.895 90.4641C243.04 90.4641 243.926 90.6942 244.553 91.1543C245.179 91.6144 245.492 92.28 245.492 93.1513C245.492 94.0421 245.164 94.7421 244.509 95.2511C243.853 95.7504 242.884 96 241.601 96H236.726ZM238.606 94.5316H241.542C242.208 94.5316 242.712 94.4092 243.055 94.1645C243.398 93.91 243.569 93.5233 243.569 93.0045C243.569 92.4856 243.398 92.1087 243.055 91.8738C242.712 91.629 242.208 91.5067 241.542 91.5067H238.606V94.5316ZM238.606 90.1117H241.161C241.777 90.1117 242.247 89.9893 242.57 89.7446C242.893 89.4901 243.055 89.1279 243.055 88.658C243.055 88.1685 242.893 87.8014 242.57 87.5567C242.247 87.3119 241.777 87.1896 241.161 87.1896H238.606V90.1117ZM252.439 96.1468C251.637 96.1468 250.898 96.0147 250.222 95.7504C249.547 95.4861 248.959 95.119 248.46 94.6491C247.961 94.1694 247.574 93.6114 247.3 92.9751C247.026 92.329 246.889 91.6242 246.889 90.8606C246.889 90.097 247.026 89.3971 247.3 88.7608C247.574 88.1147 247.961 87.5567 248.46 87.0868C248.959 86.6071 249.547 86.2351 250.222 85.9708C250.898 85.7065 251.632 85.5743 252.425 85.5743C253.227 85.5743 253.962 85.7065 254.627 85.9708C255.303 86.2351 255.89 86.6071 256.389 87.0868C256.889 87.5567 257.275 88.1147 257.549 88.7608C257.824 89.3971 257.961 90.097 257.961 90.8606C257.961 91.6242 257.824 92.329 257.549 92.9751C257.275 93.6212 256.889 94.1792 256.389 94.6491C255.89 95.119 255.303 95.4861 254.627 95.7504C253.962 96.0147 253.232 96.1468 252.439 96.1468ZM252.425 94.4729C252.944 94.4729 253.423 94.3848 253.864 94.2085C254.304 94.0323 254.686 93.7827 255.009 93.4597C255.332 93.1268 255.582 92.745 255.758 92.3143C255.944 91.8738 256.037 91.3892 256.037 90.8606C256.037 90.332 255.944 89.8523 255.758 89.4215C255.582 88.981 255.332 88.5992 255.009 88.2762C254.686 87.9434 254.304 87.6888 253.864 87.5126C253.423 87.3364 252.944 87.2483 252.425 87.2483C251.906 87.2483 251.426 87.3364 250.986 87.5126C250.555 87.6888 250.173 87.9434 249.84 88.2762C249.517 88.5992 249.263 88.981 249.077 89.4215C248.901 89.8523 248.812 90.332 248.812 90.8606C248.812 91.3794 248.901 91.8591 249.077 92.2996C249.263 92.7401 249.517 93.1268 249.84 93.4597C250.163 93.7827 250.545 94.0323 250.986 94.2085C251.426 94.3848 251.906 94.4729 252.425 94.4729Z" fill="#40ABBD"/>
<path d="M282.484 256.147C281.701 256.147 280.972 256.02 280.296 255.765C279.631 255.501 279.048 255.134 278.549 254.664C278.059 254.184 277.678 253.621 277.404 252.975C277.129 252.329 276.992 251.624 276.992 250.861C276.992 250.097 277.129 249.392 277.404 248.746C277.678 248.1 278.064 247.542 278.564 247.072C279.063 246.592 279.645 246.225 280.311 245.971C280.977 245.706 281.706 245.574 282.499 245.574C283.341 245.574 284.109 245.721 284.804 246.015C285.499 246.299 286.087 246.725 286.566 247.292L285.333 248.452C284.961 248.051 284.545 247.752 284.085 247.557C283.625 247.351 283.125 247.248 282.587 247.248C282.049 247.248 281.554 247.336 281.104 247.513C280.663 247.689 280.277 247.938 279.944 248.262C279.621 248.585 279.366 248.966 279.18 249.407C279.004 249.847 278.916 250.332 278.916 250.861C278.916 251.389 279.004 251.874 279.18 252.314C279.366 252.755 279.621 253.137 279.944 253.46C280.277 253.783 280.663 254.032 281.104 254.209C281.554 254.385 282.049 254.473 282.587 254.473C283.125 254.473 283.625 254.375 284.085 254.179C284.545 253.974 284.961 253.665 285.333 253.254L286.566 254.429C286.087 254.987 285.499 255.413 284.804 255.706C284.109 256 283.336 256.147 282.484 256.147ZM292.896 256.147C292.093 256.147 291.354 256.015 290.679 255.75C290.003 255.486 289.416 255.119 288.917 254.649C288.417 254.169 288.031 253.611 287.757 252.975C287.482 252.329 287.345 251.624 287.345 250.861C287.345 250.097 287.482 249.397 287.757 248.761C288.031 248.115 288.417 247.557 288.917 247.087C289.416 246.607 290.003 246.235 290.679 245.971C291.354 245.706 292.088 245.574 292.881 245.574C293.684 245.574 294.418 245.706 295.084 245.971C295.759 246.235 296.347 246.607 296.846 247.087C297.345 247.557 297.732 248.115 298.006 248.761C298.28 249.397 298.417 250.097 298.417 250.861C298.417 251.624 298.28 252.329 298.006 252.975C297.732 253.621 297.345 254.179 296.846 254.649C296.347 255.119 295.759 255.486 295.084 255.75C294.418 256.015 293.689 256.147 292.896 256.147ZM292.881 254.473C293.4 254.473 293.88 254.385 294.32 254.209C294.761 254.032 295.143 253.783 295.466 253.46C295.789 253.127 296.038 252.745 296.215 252.314C296.401 251.874 296.494 251.389 296.494 250.861C296.494 250.332 296.401 249.852 296.215 249.422C296.038 248.981 295.789 248.599 295.466 248.276C295.143 247.943 294.761 247.689 294.32 247.513C293.88 247.336 293.4 247.248 292.881 247.248C292.362 247.248 291.883 247.336 291.442 247.513C291.012 247.689 290.63 247.943 290.297 248.276C289.974 248.599 289.719 248.981 289.533 249.422C289.357 249.852 289.269 250.332 289.269 250.861C289.269 251.379 289.357 251.859 289.533 252.3C289.719 252.74 289.974 253.127 290.297 253.46C290.62 253.783 291.002 254.032 291.442 254.209C291.883 254.385 292.362 254.473 292.881 254.473ZM299.228 254.987L299.844 253.592C300.285 253.895 300.765 254.13 301.283 254.297C301.812 254.453 302.336 254.536 302.855 254.546C303.373 254.556 303.843 254.497 304.264 254.37C304.695 254.243 305.038 254.052 305.292 253.797C305.547 253.543 305.674 253.225 305.674 252.843C305.674 252.383 305.483 252.04 305.101 251.815C304.729 251.58 304.22 251.463 303.574 251.463H301.181V249.965H303.427C304.005 249.965 304.45 249.847 304.764 249.612C305.087 249.377 305.248 249.059 305.248 248.658C305.248 248.325 305.14 248.051 304.925 247.836C304.72 247.62 304.436 247.459 304.073 247.351C303.721 247.243 303.32 247.194 302.869 247.204C302.429 247.204 301.969 247.273 301.489 247.41C301.009 247.537 300.554 247.728 300.123 247.983L299.521 246.441C300.167 246.098 300.843 245.858 301.548 245.721C302.262 245.584 302.953 245.545 303.618 245.604C304.284 245.662 304.881 245.814 305.41 246.059C305.948 246.304 306.379 246.627 306.702 247.028C307.025 247.42 307.186 247.885 307.186 248.423C307.186 248.912 307.054 249.348 306.79 249.73C306.535 250.102 306.183 250.391 305.733 250.596C305.282 250.802 304.759 250.905 304.162 250.905L304.235 250.435C304.91 250.435 305.498 250.552 305.997 250.787C306.506 251.012 306.898 251.326 307.172 251.727C307.456 252.128 307.598 252.593 307.598 253.122C307.598 253.621 307.47 254.067 307.216 254.458C306.961 254.84 306.614 255.163 306.173 255.427C305.733 255.682 305.229 255.873 304.661 256C304.093 256.117 303.496 256.162 302.869 256.132C302.243 256.103 301.616 255.995 300.99 255.809C300.373 255.623 299.786 255.349 299.228 254.987ZM316.605 255.119V247.336H312.582L312.508 249.157C312.479 249.842 312.435 250.493 312.376 251.11C312.327 251.717 312.244 252.27 312.126 252.77C312.019 253.269 311.867 253.685 311.671 254.018C311.475 254.35 311.236 254.571 310.952 254.678L308.896 254.385C309.268 254.404 309.571 254.277 309.806 254.003C310.051 253.729 310.242 253.347 310.379 252.858C310.516 252.368 310.619 251.795 310.687 251.14C310.756 250.474 310.805 249.754 310.834 248.981L310.952 245.721H318.485V255.119H316.605ZM308.543 258.188L308.558 254.385H319.968V258.188H318.206V256H310.32V258.188H308.543ZM320.473 256L325.098 245.721H326.978L331.618 256H329.621L325.641 246.734H326.405L322.44 256H320.473ZM322.602 253.621L323.116 252.123H328.666L329.18 253.621H322.602ZM340.419 245.721H342.327V256H340.419V245.721ZM335.103 256H333.194V245.721H335.103V256ZM340.565 251.595H334.941V249.965H340.565V251.595ZM345.225 256V245.721H347.105V253.019L352.626 245.721H354.403V256H352.523V248.717L347.002 256H345.225ZM359.047 249.994H364.157V251.565H359.047V249.994ZM359.194 254.399H364.994V256H357.285V245.721H364.789V247.322H359.194V254.399ZM278.968 274V263.721H288.057V274H286.178V264.867L286.618 265.336H280.407L280.848 264.867V274H278.968ZM290.956 274V263.721H295.185C296.095 263.721 296.873 263.868 297.52 264.162C298.175 264.455 298.68 264.876 299.032 265.425C299.384 265.973 299.561 266.624 299.561 267.377C299.561 268.131 299.384 268.782 299.032 269.33C298.68 269.879 298.175 270.3 297.52 270.593C296.873 270.887 296.095 271.034 295.185 271.034H292.013L292.865 270.138V274H290.956ZM292.865 270.344L292.013 269.419H295.097C295.939 269.419 296.57 269.242 296.991 268.89C297.422 268.528 297.637 268.024 297.637 267.377C297.637 266.722 297.422 266.217 296.991 265.865C296.57 265.513 295.939 265.336 295.097 265.336H292.013L292.865 264.397V270.344ZM306.282 274.147C305.48 274.147 304.74 274.015 304.065 273.75C303.39 273.486 302.802 273.119 302.303 272.649C301.804 272.169 301.417 271.611 301.143 270.975C300.869 270.329 300.732 269.624 300.732 268.861C300.732 268.097 300.869 267.397 301.143 266.761C301.417 266.115 301.804 265.557 302.303 265.087C302.802 264.607 303.39 264.235 304.065 263.971C304.74 263.706 305.475 263.574 306.268 263.574C307.07 263.574 307.805 263.706 308.47 263.971C309.146 264.235 309.733 264.607 310.232 265.087C310.732 265.557 311.118 266.115 311.392 266.761C311.666 267.397 311.803 268.097 311.803 268.861C311.803 269.624 311.666 270.329 311.392 270.975C311.118 271.621 310.732 272.179 310.232 272.649C309.733 273.119 309.146 273.486 308.47 273.75C307.805 274.015 307.075 274.147 306.282 274.147ZM306.268 272.473C306.786 272.473 307.266 272.385 307.707 272.209C308.147 272.032 308.529 271.783 308.852 271.46C309.175 271.127 309.425 270.745 309.601 270.314C309.787 269.874 309.88 269.389 309.88 268.861C309.88 268.332 309.787 267.852 309.601 267.422C309.425 266.981 309.175 266.599 308.852 266.276C308.529 265.943 308.147 265.689 307.707 265.513C307.266 265.336 306.786 265.248 306.268 265.248C305.749 265.248 305.269 265.336 304.829 265.513C304.398 265.689 304.016 265.943 303.683 266.276C303.36 266.599 303.106 266.981 302.92 267.422C302.743 267.852 302.655 268.332 302.655 268.861C302.655 269.379 302.743 269.859 302.92 270.3C303.106 270.74 303.36 271.127 303.683 271.46C304.006 271.783 304.388 272.032 304.829 272.209C305.269 272.385 305.749 272.473 306.268 272.473ZM320.455 273.119V265.336H316.432L316.358 267.157C316.329 267.842 316.285 268.493 316.226 269.11C316.177 269.717 316.094 270.27 315.977 270.77C315.869 271.269 315.717 271.685 315.521 272.018C315.326 272.35 315.086 272.571 314.802 272.678L312.746 272.385C313.118 272.404 313.422 272.277 313.657 272.003C313.901 271.729 314.092 271.347 314.229 270.858C314.366 270.368 314.469 269.795 314.538 269.14C314.606 268.474 314.655 267.754 314.684 266.981L314.802 263.721H322.335V273.119H320.455ZM312.394 276.188L312.408 272.385H323.818V276.188H322.056V274H314.17V276.188H312.394ZM325.762 272.385C326.301 272.571 326.775 272.62 327.187 272.532C327.598 272.443 327.965 272.145 328.288 271.636L328.787 270.858L328.978 270.652L332.561 263.721H334.44L329.976 272.018C329.614 272.713 329.184 273.241 328.684 273.604C328.185 273.966 327.647 274.166 327.069 274.206C326.501 274.255 325.909 274.147 325.292 273.883L325.762 272.385ZM328.934 272.297L324.352 263.721H326.394L329.976 270.828L328.934 272.297ZM342.567 274L339.087 268.993L340.628 268.038L344.725 274H342.567ZM335.768 274V263.721H337.648V274H335.768ZM337.075 269.668V268.024H340.54V269.668H337.075ZM340.805 269.081L339.057 268.846L342.567 263.721H344.593L340.805 269.081ZM348.079 274V264.867L348.534 265.336H344.687V263.721H353.38V265.336H349.533L349.973 264.867V274H348.079ZM353.203 274L357.829 263.721H359.708L364.349 274H362.351L358.372 264.734H359.136L355.171 274H353.203ZM355.333 271.621L355.846 270.123H361.397L361.911 271.621H355.333Z" fill="#40ABBD"/>
<path d="M29.4497 259V248.721H31.3293V256.019L36.8505 248.721H38.6272V259H36.7477V251.717L31.2265 259H29.4497ZM48.7337 248.721H50.6427V259H48.7337V248.721ZM43.4181 259H41.5092V248.721H43.4181V259ZM48.8806 254.595H43.2566V252.965H48.8806V254.595ZM55.6846 259V249.867L56.1398 250.336H52.2926V248.721H60.9855V250.336H57.1383L57.5788 249.867V259H55.6846ZM64.3939 252.994H69.504V254.565H64.3939V252.994ZM64.5408 257.399H70.341V259H62.6319V248.721H70.1354V250.322H64.5408V257.399ZM72.4837 259V248.721H79.4586L79.4439 250.336H73.9081L74.3486 249.881L74.3633 259H72.4837ZM81.0586 259V248.721H85.2876C86.198 248.721 86.9763 248.868 87.6224 249.162C88.2783 249.455 88.7824 249.876 89.1348 250.425C89.4873 250.973 89.6635 251.624 89.6635 252.377C89.6635 253.131 89.4873 253.782 89.1348 254.33C88.7824 254.879 88.2783 255.3 87.6224 255.593C86.9763 255.887 86.198 256.034 85.2876 256.034H82.1159L82.9675 255.138V259H81.0586ZM82.9675 255.344L82.1159 254.419H85.1995C86.0414 254.419 86.6728 254.242 87.0938 253.89C87.5245 253.528 87.7399 253.024 87.7399 252.377C87.7399 251.722 87.5245 251.217 87.0938 250.865C86.6728 250.513 86.0414 250.336 85.1995 250.336H82.1159L82.9675 249.397V255.344ZM89.6463 259L94.2717 248.721H96.1513L100.791 259H98.7944L94.815 249.734H95.5786L91.6139 259H89.6463ZM91.7755 256.621L92.2894 255.123H97.84L98.3539 256.621H91.7755ZM102.382 259V248.721H104.262V257.385H109.445V248.721H111.34V259H102.382ZM111.105 261.261V258.53L111.531 259H109.445V257.385H112.867V261.261H111.105ZM114.629 259V248.721H116.508V256.019L122.029 248.721H123.806V259H121.927V251.717L116.405 259H114.629ZM132.665 259V255.711L133.134 256.137H130.124C129.263 256.137 128.519 255.995 127.892 255.711C127.276 255.417 126.801 255.001 126.468 254.463C126.135 253.914 125.969 253.259 125.969 252.495C125.969 251.702 126.145 251.027 126.497 250.469C126.85 249.901 127.349 249.47 127.995 249.176C128.641 248.873 129.4 248.721 130.271 248.721H134.544V259H132.665ZM125.998 259L128.538 255.329H130.462L128.01 259H125.998ZM132.665 255.094V249.808L133.134 250.336H130.33C129.547 250.336 128.945 250.518 128.524 250.88C128.113 251.232 127.907 251.761 127.907 252.466C127.907 253.141 128.103 253.665 128.494 254.037C128.896 254.399 129.483 254.58 130.256 254.58H133.134L132.665 255.094ZM52.1868 277L48.7067 271.993L50.2486 271.038L54.3454 277H52.1868ZM45.3881 277V266.721H47.2677V277H45.3881ZM46.695 272.668V271.024H50.1604V272.668H46.695ZM50.4248 272.081L48.6774 271.846L52.1868 266.721H54.2132L50.4248 272.081ZM55.694 277.147C55.5276 277.147 55.3612 277.132 55.1948 277.103C55.0284 277.073 54.8473 277.039 54.6515 277L54.7836 275.341C54.9207 275.38 55.0675 275.399 55.2242 275.399C55.6353 275.399 55.9632 275.233 56.208 274.9C56.4527 274.558 56.6289 274.058 56.7366 273.402C56.8443 272.747 56.9177 271.939 56.9569 270.98L57.1037 266.721H64.666V277H62.7864V267.867L63.227 268.336H58.3372L58.7483 267.852L58.6455 270.906C58.6162 271.924 58.5476 272.82 58.44 273.593C58.3323 274.367 58.1659 275.018 57.9407 275.546C57.7253 276.065 57.4365 276.462 57.0743 276.736C56.7121 277.01 56.252 277.147 55.694 277.147ZM67.5723 277V266.721H69.4518V274.019L74.9731 266.721H76.7498V277H74.8703V269.717L69.3491 277H67.5723ZM81.3939 270.994H86.5039V272.565H81.3939V270.994ZM81.5407 275.399H87.3409V277H79.6318V266.721H87.1353V268.322H81.5407V275.399ZM96.6935 266.721H98.6024V277H96.6935V266.721ZM91.3779 277H89.469V266.721H91.3779V277ZM96.8404 272.595H91.2164V270.965H96.8404V272.595ZM103.644 277V267.867L104.1 268.336H100.252V266.721H108.945V268.336H105.098L105.539 267.867V277H103.644ZM108.769 277L113.394 266.721H115.274L119.914 277H117.917L113.937 267.734H114.701L110.736 277H108.769ZM110.898 274.621L111.412 273.123H116.962L117.476 274.621H110.898Z" fill="#40ABBD"/>
</svg>
