<svg width="38" height="31" viewBox="0 0 38 31" fill="none" xmlns="http://www.w3.org/2000/svg">
<path d="M20.7636 2.7657C20.4983 2.76621 20.233 2.77228 19.9679 2.78392C19.3983 2.88519 19.1353 3.13458 18.9925 3.42003C18.8351 3.73476 18.8412 4.15825 19.0167 4.53482C19.1923 4.91159 19.5143 5.21959 19.9639 5.33462C20.4136 5.44966 21.0325 5.3902 21.8461 4.87016L22.4964 5.88801C21.4742 6.54138 20.485 6.71373 19.665 6.50389C18.845 6.29405 18.2366 5.72044 17.9222 5.04575C17.6259 4.41009 17.5715 3.66431 17.8556 3.00203C15.0821 3.45053 12.5708 4.51414 10.6417 6.01112C10.0078 6.70184 9.94573 7.50462 10.2236 8.0529C10.5358 8.66852 11.2712 9.11793 12.7421 8.65263L13.1076 9.8038C11.2606 10.388 9.73822 9.7658 9.14735 8.60015C9.00323 8.31599 8.91521 8.00844 8.88064 7.69132C8.56953 8.06046 8.28867 8.44473 8.04051 8.8445L8.04865 8.84838C7.49196 10.1161 7.4793 10.9941 7.70122 11.5647C7.92327 12.1354 8.38851 12.4979 9.10489 12.6977C10.5375 13.0971 12.8574 12.6152 14.491 11.3951C15.1902 10.873 15.8531 9.6065 15.9108 8.62432C15.9395 8.13317 15.8355 7.74515 15.63 7.49738C15.4245 7.24961 15.0954 7.0642 14.4142 7.07124L14.4021 5.86365C15.3383 5.85396 16.0985 6.17088 16.559 6.72601C17.0194 7.28114 17.1574 7.99603 17.1164 8.69502C17.0343 10.0931 16.3024 11.5497 15.2139 12.3625C13.2832 13.8046 10.7331 14.4051 8.78176 13.861C7.87778 13.609 7.07759 13.0606 6.66528 12.2112C6.04836 15.1481 6.94465 17.8762 8.65044 19.7642C8.8734 20.0111 9.1107 20.2444 9.35938 20.4609C9.1814 19.9512 9.09985 19.4204 9.11897 18.9038C9.15323 17.9781 9.51203 17.072 10.2318 16.4461C10.8221 15.9326 11.6376 15.6364 12.6128 15.6383C12.6778 15.6383 12.7443 15.6395 12.8107 15.6422C12.9626 15.6487 13.1185 15.6618 13.2773 15.6826L13.1196 16.8803C12.1122 16.7479 11.4584 16.9786 11.0234 17.3569C10.5885 17.7352 10.3485 18.3013 10.3246 18.9483C10.2768 20.2424 11.1047 21.7534 12.8896 22.1917L12.8875 22.2039C14.6448 22.5393 16.6058 22.2279 18.5746 21.0264C18.5757 21.0256 18.5774 21.0253 18.5786 21.0245C18.9883 20.7369 19.209 20.4552 19.3178 20.2126C19.4461 19.9261 19.4433 19.6767 19.352 19.4088C19.1695 18.873 18.5158 18.3223 17.9162 18.1688C16.9467 17.9206 16.3308 18.2616 16.042 18.6677C15.7533 19.0735 15.7357 19.4723 16.1814 19.8187L15.4401 20.7719C14.5233 20.0589 14.4648 18.8017 15.0585 17.9668C15.5039 17.3407 16.2854 16.9118 17.2276 16.8844C17.2673 16.8829 17.307 16.8823 17.3468 16.8824C17.625 16.8844 17.9148 16.9226 18.2151 16.9994C19.2172 17.256 20.1436 17.9867 20.4951 19.0189C20.5889 19.2957 20.63 19.5875 20.6164 19.8794C21.6963 19.3276 22.8351 18.8376 23.9951 18.4696C25.944 17.5791 26.7889 16.0179 26.7559 14.7032C26.7226 13.3789 25.9037 12.2643 24.0173 12.0778L24.1365 10.8761C26.5061 11.1105 27.9146 12.8051 27.9616 14.6729C27.9888 15.7612 27.5897 16.8936 26.7862 17.8576C27.8248 17.7413 28.857 17.761 29.8578 17.9628C29.6541 17.5445 29.5554 17.0917 29.5691 16.6419C29.6129 15.2179 30.8241 13.8894 32.7277 13.8691C32.8577 13.8679 32.9878 13.8726 33.1174 13.8832L33.0204 15.0869C31.4095 14.9577 30.8038 15.8033 30.7768 16.6803C30.7501 17.5475 31.329 18.5183 32.9883 18.6472C34.8172 18.6634 36.1283 17.6715 36.7708 16.1975C37.631 14.2241 37.223 11.2655 34.519 8.55957C34.4678 8.50832 34.417 8.45662 34.3655 8.40608C34.3371 8.64708 34.2753 8.88294 34.1818 9.10688C33.7133 10.2307 32.6158 10.9893 31.4756 11.2012C29.903 11.4934 28.6134 10.8556 28.0182 9.88245C27.423 8.90938 27.5792 7.53331 28.6502 6.80886L29.3268 7.81056C28.7508 8.20012 28.7271 8.72759 29.0481 9.25235C29.3691 9.77724 30.0931 10.2318 31.2555 10.0158C31.9861 9.87999 32.7997 9.28363 33.0669 8.64254C33.2007 8.322 33.2265 8.00521 33.0933 7.64279C32.985 7.34842 32.7581 7.01179 32.3359 6.65725L32.3238 6.64723C30.5585 5.31679 28.6829 4.35994 26.7821 3.72894C26.7833 3.73101 26.7851 3.73282 26.7862 3.73495C27.2182 4.52467 27.2502 5.42051 26.9842 6.21295C26.4521 7.79789 24.7824 9.04665 22.7168 8.97763C22.2678 8.96276 21.8405 9.17926 21.4769 9.60172C21.1133 10.0242 20.8478 10.643 20.7862 11.3022C20.6631 12.6206 21.2336 14.0737 23.4581 14.792L23.0861 15.9411C20.4311 15.084 19.4134 12.9977 19.5821 11.1912C19.6666 10.288 20.0155 9.44875 20.5616 8.81425C21.1078 8.17976 21.8848 7.74128 22.757 7.77016C24.3105 7.82199 25.4921 6.85998 25.8387 5.82733C26.0121 5.3111 25.9896 4.79739 25.7256 4.31477C25.4692 3.84611 24.9611 3.38268 24.0515 3.04449C22.9657 2.85593 21.8656 2.76264 20.7636 2.7657ZM27.3048 19.0473C24.5961 19.2677 21.6588 20.5595 19.2086 22.0564C15.5908 24.2665 11.7837 23.784 9.08253 21.7798C10.1452 25.5826 13.9108 26.3545 17.8393 25.3927C18.2324 25.245 18.6187 24.9702 18.9481 24.6152C19.4041 24.1236 19.7345 23.4862 19.8386 22.9592L21.0241 23.1935C20.8661 23.9937 20.4374 24.7875 19.8346 25.4373C19.2562 26.0606 18.5027 26.5585 17.6312 26.6893C17.194 27.6632 16.8342 28.6074 16.6881 29.2683C16.4587 30.3062 17.6062 30.7046 18.1199 29.658C19.3492 27.1542 21.0843 24.9254 23.2516 23.0037C24.936 21.8952 26.3799 20.5283 27.3049 19.0473H27.3048Z" fill="#BCEAF2"/>
<path d="M14.3286 0.765698C14.0632 0.766208 13.7979 0.772284 13.5329 0.783922C12.9632 0.88519 12.7002 1.13458 12.5574 1.42003C12.4 1.73476 12.4062 2.15825 12.5816 2.53482C12.7572 2.91159 13.0792 3.21959 13.5288 3.33462C13.9785 3.44966 14.5975 3.3902 15.4111 2.87016L16.0614 3.88801C15.0391 4.54138 14.05 4.71373 13.23 4.50389C12.41 4.29405 11.8015 3.72044 11.4871 3.04575C11.1909 2.41009 11.1365 1.66431 11.4206 1.00203C8.64704 1.45053 6.13569 2.51414 4.20669 4.01112C3.57271 4.70184 3.51067 5.50462 3.78856 6.0529C4.1007 6.66852 4.83614 7.11793 6.30701 6.65263L6.67253 7.8038C4.82554 8.38801 3.30316 7.7658 2.71229 6.60015C2.56817 6.31599 2.48015 6.00844 2.44558 5.69132C2.13447 6.06046 1.85361 6.44473 1.60545 6.8445L1.61359 6.84838C1.05691 8.11607 1.04424 8.99413 1.26616 9.56471C1.48822 10.1354 1.95345 10.4979 2.66983 10.6977C4.10245 11.0971 6.42231 10.6152 8.05591 9.39514C8.75516 8.87296 9.41802 7.6065 9.47573 6.62432C9.50449 6.13317 9.40044 5.74515 9.19493 5.49738C8.98942 5.24961 8.66035 5.0642 7.97913 5.07124L7.96705 3.86365C8.90328 3.85396 9.66347 4.17088 10.1239 4.72601C10.5843 5.28114 10.7224 5.99603 10.6813 6.69502C10.5992 8.09306 9.86736 9.54965 8.77887 10.3625C6.84812 11.8046 4.298 12.4051 2.3467 11.861C1.44272 11.609 0.642527 11.0606 0.230217 10.2112C-0.386698 13.1481 0.509593 15.8762 2.21538 17.7642C2.43834 18.0111 2.67564 18.2444 2.92432 18.4609C2.74634 17.9512 2.66479 17.4204 2.68392 16.9038C2.71817 15.9781 3.07697 15.072 3.79677 14.4461C4.38706 13.9326 5.2025 13.6364 6.17776 13.6383C6.24278 13.6383 6.30921 13.6395 6.37565 13.6422C6.52752 13.6487 6.68346 13.6618 6.84224 13.6826L6.68456 14.8803C5.67717 14.7479 5.02336 14.9786 4.58836 15.3569C4.15343 15.7352 3.91348 16.3013 3.88957 16.9483C3.84175 18.2424 4.6696 19.7534 6.45455 20.1917L6.45249 20.2039C8.20978 20.5393 10.1708 20.2279 12.1395 19.0264C12.1407 19.0256 12.1423 19.0253 12.1435 19.0245C12.5533 18.7369 12.774 18.4552 12.8827 18.2126C13.011 17.9261 13.0083 17.6767 12.917 17.4088C12.7345 16.873 12.0807 16.3223 11.4811 16.1688C10.5116 15.9206 9.89573 16.2616 9.60698 16.6677C9.31824 17.0735 9.30066 17.4723 9.74632 17.8187L9.00506 18.7719C8.08822 18.0589 8.02973 16.8017 8.62345 15.9668C9.06885 15.3407 9.85036 14.9118 10.7925 14.8844C10.8322 14.8829 10.872 14.8823 10.9117 14.8824C11.19 14.8844 11.4798 14.9226 11.7801 14.9994C12.7821 15.256 13.7085 15.9867 14.0601 17.0189C14.1539 17.2957 14.195 17.5875 14.1813 17.8794C15.2612 17.3276 16.4 16.8376 17.5601 16.4696C19.5089 15.5791 20.3538 14.0179 20.3209 12.7032C20.2876 11.3789 19.4686 10.2643 17.5823 10.0778L17.7015 8.87613C20.071 9.11046 21.4796 10.8051 21.5265 12.6729C21.5538 13.7612 21.1546 14.8936 20.3511 15.8576C21.3898 15.7413 22.422 15.761 23.4227 15.9628C23.219 15.5445 23.1203 15.0917 23.1341 14.6419C23.1778 13.2179 24.3891 11.8894 26.2926 11.8691C26.4227 11.8679 26.5527 11.8726 26.6823 11.8832L26.5854 13.0869C24.9745 12.9577 24.3687 13.8033 24.3417 14.6803C24.3151 15.5475 24.8939 16.5183 26.5532 16.6472C28.3821 16.6634 29.6932 15.6715 30.3357 14.1975C31.1959 12.2241 30.7879 9.2655 28.0839 6.55957C28.0327 6.50832 27.9819 6.45662 27.9304 6.40608C27.9021 6.64708 27.8402 6.88294 27.7468 7.10688C27.2782 8.23071 26.1807 8.98929 25.0406 9.20119C23.4679 9.49343 22.1783 8.85564 21.5831 7.88245C20.9879 6.90938 21.1442 5.53331 22.2152 4.80886L22.8918 5.81056C22.3158 6.20012 22.2921 6.72759 22.6131 7.25235C22.934 7.77724 23.658 8.23181 24.8204 8.01584C25.5511 7.87999 26.3647 7.28363 26.6318 6.64254C26.7656 6.322 26.7915 6.00521 26.6582 5.64279C26.55 5.34842 26.323 5.01179 25.9008 4.65725L25.8887 4.64723C24.1234 3.31679 22.2479 2.35994 20.3471 1.72894C20.3482 1.73101 20.35 1.73282 20.3512 1.73495C20.7831 2.52467 20.8152 3.42051 20.5491 4.21295C20.017 5.79789 18.3473 7.04665 16.2818 6.97763C15.8327 6.96276 15.4054 7.17926 15.0419 7.60172C14.6782 8.02417 14.4127 8.64302 14.3511 9.3022C14.228 10.6206 14.7985 12.0737 17.023 12.792L16.651 13.9411C13.996 13.084 12.9784 10.9977 13.147 9.19118C13.2315 8.28804 13.5804 7.44875 14.1266 6.81425C14.6728 6.17976 15.4498 5.74128 16.3219 5.77016C17.8755 5.82199 19.057 4.85998 19.4037 3.82733C19.577 3.3111 19.5546 2.79739 19.2906 2.31477C19.0342 1.84611 18.5261 1.38268 17.6164 1.04449C16.5307 0.855927 15.4306 0.76264 14.3286 0.765698ZM20.8698 17.0473C18.161 17.2677 15.2237 18.5595 12.7735 20.0564C9.15577 22.2665 5.34868 21.784 2.64747 19.7798C3.71017 23.5826 7.47576 24.3545 11.4042 23.3927C11.7973 23.245 12.1836 22.9702 12.513 22.6152C12.9691 22.1236 13.2995 21.4862 13.4035 20.9592L14.589 21.1935C14.431 21.9937 14.0024 22.7875 13.3995 23.4373C12.8211 24.0606 12.0676 24.5585 11.1962 24.6893C10.7589 25.6632 10.3991 26.6074 10.253 27.2683C10.0236 28.3062 11.1711 28.7046 11.6849 27.658C12.9142 25.1542 14.6493 22.9254 16.8165 21.0037C18.5009 19.8952 19.9448 18.5283 20.8698 17.0473H20.8698Z" fill="#40ABBD"/>
</svg>
