<svg width="100" height="38" viewBox="0 0 100 38" fill="none" xmlns="http://www.w3.org/2000/svg">
<mask id="mask0_1_21" style="mask-type:alpha" maskUnits="userSpaceOnUse" x="0" y="9" width="19" height="19">
<path d="M0 9.32715H18.2362V27.9759H0V9.32715Z" fill="#6AD1E3"/>
</mask>
<g mask="url(#mask0_1_21)">
<path fill-rule="evenodd" clip-rule="evenodd" d="M13.5962 23.1935C12.3874 24.4898 10.8945 25.1387 9.11811 25.1387C7.34189 25.1387 5.84717 24.4898 4.64 23.1935C3.43717 21.9018 2.83717 20.3891 2.83717 18.6511C2.83717 16.9158 3.43717 15.4021 4.64 14.1114C5.84717 12.8146 7.34189 12.1652 9.11811 12.1652C10.8945 12.1652 12.3874 12.8146 13.5962 14.1114C14.7981 15.4021 15.3991 16.9158 15.3991 18.6511C15.3991 20.3891 14.7981 21.9018 13.5962 23.1935ZM15.3991 12.7789C15.2404 12.5711 15.0715 12.3659 14.8926 12.1652C13.2081 10.2729 11.1349 9.32715 8.67151 9.32715C6.20925 9.32715 4.13623 10.2729 2.45113 12.1652C0.81717 14.0009 0 16.1634 0 18.6511C0 21.1413 0.81717 23.3017 2.45113 25.1387C4.13623 27.0303 6.20925 27.9759 8.67151 27.9759C11.1349 27.9759 13.2081 27.0303 14.8926 25.1387C15.0715 24.9375 15.2404 24.7338 15.3991 24.5253V27.5706H18.2362V9.73318H15.3991V12.7789Z" fill="#6AD1E3"/>
</g>
<path fill-rule="evenodd" clip-rule="evenodd" d="M67.9065 12.7351L67.7822 13.4811V9.70282H64.876V27.9765H67.7822V18.8384C67.7822 17.337 68.1277 15.9881 68.8194 14.7902C69.1798 14.1663 69.6288 13.6408 70.1692 13.2117C70.7092 12.7825 71.3584 12.5679 72.1154 12.5679C72.8747 12.5679 73.5881 12.8733 74.2581 13.4811V9.70282C73.6773 9.45309 73.0669 9.32812 72.4318 9.32812C70.3873 9.32812 68.8788 10.4641 67.9065 12.7351Z" fill="#6AD1E3"/>
<mask id="mask1_1_21" style="mask-type:alpha" maskUnits="userSpaceOnUse" x="81" y="9" width="19" height="19">
<path d="M81.7637 9.32715H99.9999V27.9759H81.7637V9.32715Z" fill="#6AD1E3"/>
</mask>
<g mask="url(#mask1_1_21)">
<path fill-rule="evenodd" clip-rule="evenodd" d="M95.3599 23.1935C94.1514 24.4898 92.6582 25.1387 90.8818 25.1387C89.1054 25.1387 87.6112 24.4898 86.4037 23.1935C85.2008 21.9018 84.6008 20.3891 84.6008 18.6511C84.6008 16.9158 85.2008 15.4021 86.4037 14.1114C87.6112 12.8146 89.1054 12.1652 90.8818 12.1652C92.6582 12.1652 94.1514 12.8146 95.3599 14.1114C96.5618 15.4021 97.1633 16.9158 97.1633 18.6511C97.1633 20.3891 96.5618 21.9018 95.3599 23.1935ZM97.1633 9.73318V12.7789C97.0041 12.5711 96.835 12.3659 96.6561 12.1652C94.9718 10.2729 92.8984 9.32715 90.4356 9.32715C87.9729 9.32715 85.8999 10.2729 84.2148 12.1652C82.5808 14.0009 81.7637 16.1634 81.7637 18.6511C81.7637 21.1413 82.5808 23.3017 84.2148 25.1387C85.8999 27.0303 87.9729 27.9759 90.4356 27.9759C92.8984 27.9759 94.9718 27.0303 96.6561 25.1387C96.835 24.9375 97.0041 24.7338 97.1633 24.5253V27.5706H99.9999V9.73318H97.1633Z" fill="#6AD1E3"/>
</g>
<path fill-rule="evenodd" clip-rule="evenodd" d="M41.5257 36.3679C31.7449 36.3679 23.8159 28.4355 23.8159 18.6502C23.8159 8.8649 31.7449 0.932303 41.5257 0.932303C51.3064 0.932303 59.2355 8.8649 59.2355 18.6502C59.2355 28.4355 51.3064 36.3679 41.5257 36.3679ZM41.5257 0C31.23 0 22.8838 8.34977 22.8838 18.6502C22.8838 28.9503 31.23 37.3002 41.5257 37.3002C51.8213 37.3002 60.1676 28.9503 60.1676 18.6502C60.1676 8.34977 51.8213 0 41.5257 0ZM35.5676 21.2553C34.8591 19.6154 34.8372 17.9586 35.4996 16.2848C36.1634 14.612 37.3138 13.4205 38.9544 12.7111C40.5934 12.0025 42.2504 11.9804 43.923 12.643C45.5966 13.3067 46.7862 14.4589 47.4947 16.0989C48.1934 17.7164 48.2113 19.3602 47.5478 21.0343C46.8838 22.7071 45.7321 23.8994 44.0932 24.608C42.4527 25.3173 40.7968 25.3389 39.1242 24.6761C37.4519 24.0119 36.2662 22.873 35.5676 21.2553ZM32.8566 15.237C31.9045 17.6407 31.9381 20.0222 32.9581 22.3838C33.9851 24.7611 35.6927 26.4107 38.0838 27.3384C40.4951 28.2723 42.8749 28.2326 45.2208 27.2184C47.5668 26.2042 49.2261 24.4975 50.1985 22.1008C51.161 19.7232 51.1317 17.3479 50.1047 14.9706C49.0847 12.609 47.3727 10.9532 44.9713 9.99918C42.5679 9.04706 40.1868 9.07972 37.8266 10.1C35.4653 11.1208 33.8098 12.8335 32.8566 15.237Z" fill="#6AD1E3"/>
</svg>
