<svg width="27" height="31" viewBox="0 0 27 31" fill="none" xmlns="http://www.w3.org/2000/svg">
<g clip-path="url(#clip0_1_745)">
<path d="M9.39783 17.4884C10.2927 17.4884 11.0182 16.7679 11.0182 15.879C11.0182 14.9902 10.2927 14.2697 9.39783 14.2697C8.50293 14.2697 7.77747 14.9902 7.77747 15.879C7.77747 16.7679 8.50293 17.4884 9.39783 17.4884Z" fill="#6AD1E3" fill-opacity="0.45"/>
<path d="M11.4477 4.2883C12.0443 4.2883 12.5279 3.80794 12.5279 3.21538C12.5279 2.62282 12.0443 2.14246 11.4477 2.14246C10.8511 2.14246 10.3674 2.62282 10.3674 3.21538C10.3674 3.80794 10.8511 4.2883 11.4477 4.2883Z" fill="#6AD1E3" fill-opacity="0.45"/>
<path d="M18.0393 7.19891C18.3987 7.19891 18.6899 6.90763 18.6899 6.54831C18.6899 6.18899 18.3987 5.89771 18.0393 5.89771C17.68 5.89771 17.3887 6.18899 17.3887 6.54831C17.3887 6.90763 17.68 7.19891 18.0393 7.19891Z" fill="#6AD1E3" fill-opacity="0.45"/>
<path d="M0.632812 26.4947H4.21113V18.9843H0.632812" stroke="#40ABBD" stroke-width="1.06151" stroke-linecap="round"/>
<path d="M4.25684 25.6331C8.6878 28.1485 11.2647 29.5088 11.9876 29.7139C12.6459 29.9007 13.5693 29.922 14.7577 29.7777C14.9102 29.7591 22.8152 27.1323 24.3981 26.0215C25.9811 24.9106 26.0308 24.0462 26.0308 23.8128C26.0308 23.0976 24.2304 23.4552 20.6296 24.8858" stroke="#40ABBD" stroke-width="1.06151" stroke-linecap="round"/>
<path d="M4.21112 20.0569H10.1525L13.3932 22.2027H17.7142C18.2269 22.4029 18.587 22.7606 18.7944 23.2757C19.0019 23.7907 19.0019 24.1484 18.7944 24.3486H11.7728" stroke="#40ABBD" stroke-width="1.06151" stroke-linecap="round"/>
<path d="M13.0679 18.2137V10.7261C13.0679 8.22258 13.9681 6.43437 15.7685 5.36145" stroke="#40ABBD" stroke-width="1.06151" stroke-linecap="round"/>
<path fill-rule="evenodd" clip-rule="evenodd" d="M18.3204 18.448C18.3204 18.448 16.1599 8.79167 26.9624 7.71875C27.5025 17.9115 18.3204 18.448 18.3204 18.448Z" fill="#6AD1E3" fill-opacity="0.45"/>
<path fill-rule="evenodd" clip-rule="evenodd" d="M16.8487 17.1639C16.8487 17.1639 14.6882 7.50762 25.4907 6.43469C26.0308 16.6275 16.8487 17.1639 16.8487 17.1639Z" stroke="#40ABBD" stroke-width="1.06151" stroke-linecap="round"/>
<path fill-rule="evenodd" clip-rule="evenodd" d="M17.5218 3.83642C17.5218 3.83642 17.2683 0.374439 21.2379 0.622958C20.8754 4.17748 17.5218 3.83642 17.5218 3.83642Z" stroke="#40ABBD" stroke-width="1.06151" stroke-linecap="round"/>
<path fill-rule="evenodd" clip-rule="evenodd" d="M8.80228 12.2632C8.80228 12.2632 1.51062 13.8363 0.700439 5.97076C8.39719 5.57748 8.80228 12.2632 8.80228 12.2632Z" fill="#6AD1E3" fill-opacity="0.45"/>
<path fill-rule="evenodd" clip-rule="evenodd" d="M10.3675 11.1334C10.3675 11.1334 3.07581 12.7065 2.26563 4.841C9.96237 4.44772 10.3675 11.1334 10.3675 11.1334Z" stroke="#40ABBD" stroke-width="1.06151" stroke-linecap="round"/>
</g>
<defs>
<clipPath id="clip0_1_745">
<rect width="27" height="30.253" fill="white"/>
</clipPath>
</defs>
</svg>
