<svg width="34" height="30" viewBox="0 0 34 30" fill="none" xmlns="http://www.w3.org/2000/svg">
<g clip-path="url(#clip0_1_703)">
<path fill-rule="evenodd" clip-rule="evenodd" d="M0.192177 25.1939C0.192177 25.1939 10.8735 32.8234 16.4685 24.1766C11.1568 14.8778 0.192177 25.1939 0.192177 25.1939Z" fill="#6AD1E3" fill-opacity="0.45"/>
<path fill-rule="evenodd" clip-rule="evenodd" d="M32.1476 25.1939C32.1476 25.1939 21.4663 32.8234 15.8713 24.1766C21.1829 14.8778 32.1476 25.1939 32.1476 25.1939Z" fill="#6AD1E3" fill-opacity="0.45"/>
<path fill-rule="evenodd" clip-rule="evenodd" d="M16.3759 19.2422C16.3759 19.2422 4.41616 12.3051 16.2767 0.162959C27.1679 11.8287 16.3759 19.2422 16.3759 19.2422Z" stroke="#40ABBD" stroke-width="0.666667" stroke-linecap="round"/>
<path fill-rule="evenodd" clip-rule="evenodd" d="M12.2674 19.4073C12.2674 19.4073 0.307732 12.4701 12.1683 0.327998C23.0594 11.9938 12.2674 19.4073 12.2674 19.4073Z" fill="#6AD1E3" fill-opacity="0.45"/>
<path fill-rule="evenodd" clip-rule="evenodd" d="M16.3499 29.6629C16.3499 29.6629 9.67648 26.2184 16.3759 21.1C22.3904 25.9964 16.3499 29.6629 16.3499 29.6629Z" fill="white" stroke="#40ABBD" stroke-width="0.666667" stroke-linecap="round"/>
<path fill-rule="evenodd" clip-rule="evenodd" d="M32.553 21.5258C32.553 21.5258 21.8717 29.1553 16.2767 20.5085C21.5883 11.2097 32.553 21.5258 32.553 21.5258Z" stroke="#40ABBD" stroke-width="0.666667" stroke-linecap="round"/>
<path fill-rule="evenodd" clip-rule="evenodd" d="M0.192176 21.5258C0.192176 21.5258 10.8735 29.1553 16.4685 20.5085C11.1568 11.2097 0.192176 21.5258 0.192176 21.5258Z" stroke="#40ABBD" stroke-width="0.666667" stroke-linecap="round"/>
<path fill-rule="evenodd" clip-rule="evenodd" d="M16.2209 20.7774C16.2209 20.7774 14.4395 5.40858 31.4128 5.50571C30.5868 21.4439 16.2209 20.7774 16.2209 20.7774Z" fill="white" stroke="#40ABBD" stroke-width="0.666667" stroke-linecap="round"/>
<path fill-rule="evenodd" clip-rule="evenodd" d="M15.9154 20.7774C15.9154 20.7774 17.6967 5.40858 0.723409 5.50571C1.5494 21.4439 15.9154 20.7774 15.9154 20.7774Z" fill="white" stroke="#40ABBD" stroke-width="0.666667" stroke-linecap="round"/>
</g>
<defs>
<clipPath id="clip0_1_703">
<rect width="33.0612" height="30" fill="white"/>
</clipPath>
</defs>
</svg>
